<svg xmlns="http://www.w3.org/2000/svg" version="1.1" xmlns:xlink="http://www.w3.org/1999/xlink" xmlns:svgjs="http://svgjs.dev/svgjs" width="345" height="281" viewBox="0 0 120 120" style="background: rgb(43, 89, 189);"><svg viewBox="0 0 88.84496307373047 105" width="75" height="75" x="22.5" y="22.5" style="fill: rgb(154, 188, 255);"><svg xmlns="http://www.w3.org/2000/svg" viewBox="0 0 233.22 262.51"><path d="m177.05,65.63h38.38c2.54,0,4.64.78,6.3,2.34s2.69,3.61,3.07,6.15l5.57,57.13h-18.75l-4.69-46.88h-29.89v28.13c0,2.74-.88,4.98-2.63,6.74s-4,2.64-6.74,2.64-4.98-.88-6.74-2.64c-1.76-1.76-2.64-4-2.64-6.74v-28.13h-75v28.13c0,2.74-.88,4.98-2.63,6.74-1.76,1.76-4,2.64-6.74,2.64s-4.98-.88-6.74-2.64c-1.76-1.76-2.63-4-2.63-6.74v-28.13h-29.89l-14.94,150h101.07v18.75H9.18c-2.74,0-5.03-1.03-6.88-3.08-1.85-2.05-2.58-4.44-2.19-7.18L16.8,74.13c.39-2.54,1.42-4.59,3.07-6.15,1.66-1.56,3.76-2.34,6.3-2.34h38.38v-6.45c.39-16.8,5.86-30.76,16.41-41.9C91.5,6.16,104.78.39,120.8,0c16.02.39,29.3,6.16,39.85,17.29,10.54,11.13,16.01,25.1,16.41,41.9v6.45Zm-18.75,0v-6.45c-.19-11.53-3.86-21.1-10.99-28.71-7.13-7.62-15.97-11.52-26.51-11.72-10.55.19-19.39,4.1-26.51,11.72-7.12,7.62-10.79,17.19-10.99,28.71v6.45h75Zm58.88,141.8l-21.38-21.68v67.39c0,2.74-.88,4.98-2.63,6.74-1.76,1.76-4,2.63-6.74,2.63s-4.98-.88-6.74-2.63c-1.76-1.76-2.63-4-2.63-6.74v-67.39l-21.38,21.68c-2.74,2.54-5.81,3.32-9.22,2.34-3.41-.97-5.56-3.17-6.45-6.59s-.16-6.4,2.19-8.93l37.5-37.5c1.96-1.96,4.2-2.93,6.74-2.93s4.79.98,6.74,2.93l37.5,37.5c2.34,2.54,3.08,5.52,2.19,8.93-.88,3.42-3.03,5.62-6.45,6.59-3.42.97-6.49.19-9.23-2.34Z"></path></svg></svg><text fill="#0ac4ff" font-family="Verdana" font-size="32px" x="60" y="97.5"><tspan dy="0" x="60"></tspan></text><text fill="#9ce7ff" font-family="Tahoma" font-size="16px" x="60" y="97.5"><tspan dy="0" x="60"></tspan></text></svg>